<?xml version="1.0" encoding="UTF-8"?>
<svg xmlns="http://www.w3.org/2000/svg" xmlns:xlink="http://www.w3.org/1999/xlink" width="px" height="500px" viewBox="0 0 500 500" version="1.1">
<g id="surface1">
<path style=" stroke:none;fill-rule:nonzero;fill:rgb(10.196079%,10.588235%,18.039216%);fill-opacity:1;" d="M 444.390625 222.902344 C 454.582031 224.457031 463.320312 228.515625 469.035156 234.515625 C 474.085938 239.703125 476.808594 246.71875 476.578125 253.957031 C 476.515625 257.21875 475.972656 260.457031 474.960938 263.558594 L 488.339844 250.183594 L 475.730469 237.570312 L 440.4375 202.273438 C 443.242188 210.492188 444.171875 217.714844 444.390625 222.902344 "/>
<path style=" stroke:none;fill-rule:nonzero;fill:rgb(10.196079%,10.588235%,18.039216%);fill-opacity:1;" d="M 205.246094 380.332031 C 199.945312 378.507812 194.765625 376.351562 189.734375 373.882812 C 188.5625 376.984375 187.726562 380.203125 187.242188 383.484375 C 193.273438 382.613281 199.277344 381.5625 205.246094 380.332031 "/>
<path style=" stroke:none;fill-rule:nonzero;fill:rgb(10.196079%,10.588235%,18.039216%);fill-opacity:1;" d="M 31.078125 250.152344 L 25.722656 242.226562 C 24.941406 241.070312 24.210938 239.878906 23.539062 238.652344 L 12.015625 250.183594 L 48.058594 286.234375 L 52.09375 229.117188 Z M 31.078125 250.152344 "/>
<path style=" stroke:none;fill-rule:nonzero;fill:rgb(10.196079%,10.588235%,18.039216%);fill-opacity:1;" d="M 375.257812 307.546875 C 366.382812 326.804688 353.199219 343.761719 336.722656 357.109375 C 352.46875 358.503906 363.921875 363.105469 371.300781 367.230469 L 449.378906 289.144531 C 431.1875 298.65625 404.898438 303.761719 375.257812 307.546875 "/>
<path style=" stroke:none;fill-rule:nonzero;fill:rgb(10.196079%,10.588235%,18.039216%);fill-opacity:1;" d="M 121.738281 299.804688 C 114.371094 303.027344 105.648438 305.273438 95.566406 306.539062 L 71.273438 309.449219 L 127.234375 365.402344 C 129.863281 354.511719 134.699219 344.253906 141.628906 334.832031 C 133.300781 324.207031 126.597656 312.402344 121.738281 299.804688 "/>
<path style=" stroke:none;fill-rule:nonzero;fill:rgb(10.196079%,10.588235%,18.039216%);fill-opacity:1;" d="M 305.941406 432.589844 C 290.382812 434.25 274.492188 439.027344 257.398438 444.1875 C 244.15625 448.183594 230.640625 452.253906 216.710938 454.878906 L 250.179688 488.355469 Z M 305.941406 432.589844 "/>
<path style=" stroke:none;fill-rule:nonzero;fill:rgb(100%,100%,100%);fill-opacity:1;" d="M 474.964844 263.5625 C 475.972656 260.453125 476.515625 257.214844 476.582031 253.945312 C 476.765625 246.613281 474.15625 239.886719 469.039062 234.515625 C 463.320312 228.511719 454.589844 224.4375 444.394531 222.902344 C 444.066406 215.871094 442.730469 208.925781 440.4375 202.273438 L 488.347656 250.171875 Z M 371.292969 367.230469 C 363.921875 363.097656 352.46875 358.5 336.722656 357.101562 C 353.195312 343.757812 366.378906 326.800781 375.253906 307.546875 C 404.898438 303.761719 431.1875 298.648438 449.386719 289.144531 Z M 290.488281 118.515625 C 304.378906 115.324219 314.664062 113.445312 322.207031 112.371094 L 322.191406 112.394531 C 340.09375 109.847656 346.09375 111.933594 346.09375 111.933594 C 346.09375 111.933594 344.757812 101.253906 323.324219 104.242188 C 316.476562 105.199219 307.199219 105.390625 252.351562 120.328125 L 250.453125 120.792969 C 250.046875 120.894531 249.632812 120.992188 249.222656 121.09375 C 246.28125 121.816406 243.332031 122.535156 240.378906 123.25 C 235.164062 124.511719 229.933594 125.71875 224.691406 126.863281 L 222.195312 127.417969 C 216.445312 128.652344 210.664062 129.761719 204.867188 130.746094 L 202.425781 131.132812 C 192.671875 132.65625 183.183594 133.605469 174.144531 133.605469 L 173.765625 133.601562 C 172.863281 133.601562 171.972656 133.585938 171.097656 133.554688 C 170.917969 133.546875 170.742188 133.539062 170.566406 133.523438 C 169.75 133.503906 168.945312 133.46875 168.144531 133.429688 L 168.011719 133.421875 C 139.128906 131.679688 125.332031 118.136719 125.328125 118.136719 L 125.34375 118.128906 C 125.351562 118.117188 125.390625 118.097656 125.453125 118.074219 L 125.785156 117.847656 C 125.898438 117.773438 126.035156 117.683594 126.191406 117.582031 L 126.445312 117.414062 L 127.179688 116.914062 L 127.707031 116.558594 C 127.96875 116.386719 128.246094 116.199219 128.542969 115.992188 C 129.703125 115.183594 131.105469 114.183594 132.65625 113.058594 L 133.492188 112.429688 C 138.039062 109.027344 143.515625 104.550781 147.21875 100.21875 C 144.238281 92.539062 142.769531 84.351562 142.074219 78.851562 C 142.007812 78.351562 141.949219 77.875 141.898438 77.414062 C 141.804688 76.582031 141.726562 75.839844 141.664062 75.1875 C 141.609375 74.613281 141.570312 74.121094 141.539062 73.714844 L 141.535156 73.640625 L 141.453125 72.433594 L 141.039062 63.8125 L 148.996094 67.144531 C 149.914062 67.527344 150.832031 67.890625 151.75 68.230469 C 152.011719 68.332031 152.269531 68.429688 152.523438 68.527344 C 153.25 68.789062 153.972656 69.042969 154.695312 69.289062 L 155.332031 69.515625 C 156.25 69.816406 157.160156 70.101562 158.0625 70.371094 C 158.25 70.433594 158.433594 70.46875 158.617188 70.527344 C 159.363281 70.742188 160.105469 70.945312 160.847656 71.140625 C 161.109375 71.214844 161.367188 71.28125 161.621094 71.335938 C 163.429688 71.789062 165.25 72.1875 167.078125 72.535156 C 167.320312 72.566406 167.558594 72.609375 167.796875 72.660156 C 168.511719 72.78125 169.226562 72.894531 169.9375 72.996094 L 170.621094 73.113281 C 171.523438 73.234375 172.417969 73.363281 173.328125 73.453125 C 173.464844 73.46875 173.601562 73.484375 173.734375 73.496094 C 174.515625 73.582031 175.285156 73.65625 176.050781 73.714844 L 176.824219 73.777344 C 177.585938 73.832031 178.34375 73.878906 179.101562 73.917969 L 179.5625 73.945312 C 180.457031 73.984375 181.347656 74.007812 182.242188 74.019531 L 182.933594 74.027344 L 184.058594 74.042969 L 184.632812 74.03125 L 187.210938 73.996094 L 188.164062 73.964844 C 189.542969 73.902344 190.917969 73.820312 192.292969 73.722656 C 193.257812 73.652344 194.21875 73.570312 195.171875 73.472656 L 196.300781 73.351562 C 197.125 73.269531 197.953125 73.171875 198.78125 73.0625 L 199.898438 72.921875 C 200.882812 72.785156 201.871094 72.636719 202.859375 72.488281 C 203.042969 72.464844 203.222656 72.4375 203.398438 72.402344 C 204.570312 72.222656 205.738281 72.019531 206.90625 71.804688 C 207.222656 71.746094 207.542969 71.683594 207.871094 71.625 C 208.734375 71.464844 209.601562 71.292969 210.472656 71.113281 C 210.851562 71.035156 211.230469 70.957031 211.613281 70.882812 L 214.195312 70.316406 C 214.523438 70.25 214.851562 70.179688 215.171875 70.097656 C 216.347656 69.84375 217.523438 69.566406 218.703125 69.269531 C 218.8125 69.242188 218.921875 69.21875 219.035156 69.195312 C 220.101562 68.925781 221.167969 68.65625 222.238281 68.386719 C 222.605469 68.285156 222.976562 68.1875 223.347656 68.089844 L 225.878906 67.417969 C 226.253906 67.316406 226.628906 67.214844 227.007812 67.113281 C 227.949219 66.855469 228.890625 66.59375 229.835938 66.320312 C 230.074219 66.261719 230.316406 66.191406 230.554688 66.117188 C 231.738281 65.792969 232.925781 65.453125 234.109375 65.097656 C 234.429688 65.015625 234.746094 64.90625 235.066406 64.828125 C 235.957031 64.566406 236.847656 64.300781 237.742188 64.027344 C 238.160156 63.914062 238.578125 63.789062 238.988281 63.65625 L 241.546875 62.902344 C 241.921875 62.789062 242.296875 62.675781 242.667969 62.566406 L 245.847656 61.601562 C 245.929688 61.574219 246.019531 61.546875 246.113281 61.527344 C 248.125 60.910156 250.144531 60.300781 252.171875 59.695312 L 254.199219 59.09375 L 259.859375 57.441406 C 260.691406 57.199219 261.527344 56.964844 262.367188 56.738281 C 263.046875 56.539062 263.730469 56.34375 264.414062 56.152344 C 280.15625 51.800781 296.289062 48.347656 312.84375 48.347656 C 324.304688 48.347656 334.355469 51.53125 341.820312 57.101562 C 343.464844 58.328125 345 59.6875 346.414062 61.167969 C 349.914062 64.84375 352.519531 69.273438 354.027344 74.121094 C 355.367188 75.148438 356.929688 76.433594 358.492188 78.019531 C 359.183594 78.734375 359.863281 79.507812 360.535156 80.34375 C 363.707031 84.335938 366.382812 89.847656 366.4375 97.488281 C 366.4375 101.425781 365.578125 105.390625 363.953125 109.1875 C 362.726562 112.027344 361.183594 114.71875 359.351562 117.210938 C 358.796875 117.972656 358.210938 118.71875 357.605469 119.441406 L 409.949219 171.777344 L 388.964844 174.476562 L 387.710938 179.796875 C 387.691406 179.867188 386.476562 185.015625 384.507812 192.171875 L 367.113281 177.511719 C 360.875 167.503906 353.375 158.34375 344.800781 150.246094 C 329.402344 135.601562 310.808594 124.738281 290.488281 118.515625 M 250.179688 488.339844 L 216.710938 454.875 C 230.636719 452.257812 244.144531 448.171875 257.398438 444.183594 C 274.492188 439.023438 290.378906 434.234375 305.941406 432.578125 Z M 187.238281 383.476562 C 187.730469 380.195312 188.558594 376.996094 189.726562 373.882812 C 194.761719 376.351562 199.945312 378.507812 205.25 380.332031 C 199.28125 381.566406 193.273438 382.613281 187.238281 383.476562 M 166.308594 141.03125 C 157.695312 147.683594 149.886719 155.320312 143.046875 163.78125 C 141.597656 161.730469 139.980469 159.734375 138.195312 157.851562 C 132.734375 152.097656 125.953125 147.457031 118.113281 144.082031 L 130.394531 131.804688 C 138.597656 136.195312 150.222656 140.074219 166.320312 141.03125 Z M 127.238281 365.394531 L 71.277344 309.4375 L 95.566406 306.527344 C 105.652344 305.261719 114.378906 303.019531 121.738281 299.804688 C 126.597656 312.398438 133.304688 324.199219 141.632812 334.820312 C 134.699219 344.253906 129.863281 354.511719 127.238281 365.394531 M 250.179688 12.023438 L 282.136719 43.976562 L 282.148438 43.976562 C 269.078125 46.578125 256.371094 50.429688 243.890625 54.1875 C 227.570312 59.101562 211.953125 63.808594 196.59375 65.605469 Z M 48.066406 286.230469 L 12.015625 250.171875 L 23.542969 238.652344 C 24.300781 240.011719 25.027344 241.203125 25.722656 242.230469 L 31.074219 250.148438 L 52.097656 229.117188 Z M 500.355469 250.171875 L 494.351562 244.164062 L 368.136719 117.949219 C 370.964844 113.386719 374.113281 106.328125 374.113281 97.480469 L 374.113281 97.433594 C 374.050781 89.691406 371.625 78.652344 360.535156 69.480469 C 357.328125 61.035156 351.394531 53.902344 343.320312 48.835938 C 334.804688 43.492188 324.273438 40.679688 312.84375 40.679688 C 305.996094 40.699219 299.160156 41.207031 292.386719 42.191406 L 256.191406 6.003906 L 250.179688 -0.00390625 L 244.171875 6.003906 L 183.808594 66.371094 C 159.351562 66.28125 132.792969 52.070312 132.789062 52.058594 C 132.789062 52.070312 131.453125 76.925781 138.417969 98.304688 C 131.757812 104.371094 112.90625 116.40625 112.894531 116.414062 C 112.894531 116.414062 115.605469 121.550781 123.078125 127.152344 L 123.046875 127.132812 L 109.257812 140.921875 C 105.730469 139.902344 102.144531 139.121094 98.515625 138.582031 C 62.109375 133.089844 24.511719 158.519531 18.027344 193 C 14.988281 209.160156 16.839844 221.519531 19.863281 230.316406 L 6.007812 244.164062 L 0 250.171875 L 6.007812 256.183594 L 47.265625 297.449219 L 46.214844 312.441406 L 60.550781 310.71875 L 125.441406 375.605469 C 125.1875 377.800781 125.023438 380.007812 124.949219 382.222656 C 124.304688 400.910156 129.519531 416.523438 140.460938 428.675781 C 147.152344 446.378906 165.730469 457.699219 188.378906 457.699219 C 194.449219 457.699219 200.4375 457.28125 206.34375 456.515625 L 244.171875 494.347656 L 250.179688 500.351562 L 256.191406 494.347656 L 318.5625 431.96875 C 329.082031 432.082031 339.484375 434.230469 349.183594 438.304688 L 368.660156 446.4375 L 367.644531 425.347656 C 367.570312 423.890625 366.882812 412.113281 363.035156 399.882812 C 369.996094 393.207031 380.027344 386.734375 380.144531 386.660156 L 388.40625 381.375 L 381.472656 374.441406 C 381.308594 374.285156 380.347656 373.332031 378.570312 371.976562 L 494.351562 256.183594 Z M 500.355469 250.171875 "/>
<path style=" stroke:none;fill-rule:nonzero;fill:rgb(10.196079%,10.588235%,18.039216%);fill-opacity:1;" d="M 63.1875 184.070312 L 54.746094 303.476562 L 94.585938 298.714844 C 126.207031 294.757812 139.027344 281.136719 142.308594 264.449219 C 147.902344 234.402344 119.167969 226.320312 119.167969 226.320312 C 119.167969 226.320312 143.59375 217.671875 143.871094 190.363281 C 143.902344 172.035156 128.941406 151.144531 97.335938 146.382812 C 64.066406 141.363281 31.292969 165.089844 25.78125 194.460938 C 21.78125 215.710938 27.011719 230.046875 32.253906 237.820312 L 51.882812 218.160156 C 40.398438 185.347656 66.605469 166.679688 92.226562 170.191406 C 110.09375 172.726562 116.589844 184.296875 116.917969 194.5 C 117.261719 205.09375 111.34375 215.574219 100.085938 218.347656 C 97.199219 219.074219 93.363281 219.023438 93.363281 219.023438 L 92.265625 235.75 C 92.265625 235.75 96.871094 235.492188 99.527344 235.972656 C 108.921875 237.601562 117.261719 246.398438 114.792969 259.535156 C 112.78125 270.257812 105.882812 277.070312 93.359375 278.097656 C 89.953125 278.417969 86.550781 278.796875 83.15625 279.234375 L 90.148438 179.289062 Z M 63.1875 184.070312 "/>
<path style=" stroke:none;fill-rule:nonzero;fill:rgb(10.196079%,10.588235%,18.039216%);fill-opacity:1;" d="M 436.328125 230.105469 C 436.328125 230.105469 440.132812 204.015625 417.476562 178.769531 L 395.382812 181.605469 C 395.382812 181.605469 381.367188 241.070312 370.230469 242.097656 C 357.734375 243.664062 362.40625 214.855469 370.65625 190.8125 L 364.453125 185.582031 L 336.34375 189.203125 C 336.34375 189.203125 334.808594 184.664062 338.007812 177.058594 C 338.007812 177.058594 314.671875 179.589844 314.390625 179.546875 C 311.605469 187.953125 311.03125 199.933594 319.40625 208.078125 C 316.65625 222.058594 309.230469 252.332031 298.507812 253.855469 C 285.578125 255.476562 295.074219 220.734375 303.230469 193.179688 L 279.726562 196.195312 L 278.03125 204.308594 C 274.175781 199.035156 267.964844 195.539062 259.007812 196.691406 C 242.429688 198.824219 229.660156 215.398438 224.484375 234.3125 C 217.867188 250.148438 207.421875 264.835938 191.214844 266.648438 C 162.417969 269.09375 166.542969 228.75 184.527344 225.960938 C 195.65625 224.914062 194.878906 241.78125 180.753906 241.582031 L 181.597656 254.429688 C 202.207031 259.257812 212.027344 244.558594 213.476562 232.785156 C 215.210938 218.644531 204.023438 203.96875 181.179688 206.351562 C 131.421875 212.027344 133.460938 295.082031 192.683594 288.308594 C 207.082031 286.664062 217.488281 277.675781 224.851562 267.21875 C 228.839844 276.589844 237.21875 282.476562 251.160156 280.6875 C 261.160156 279.402344 264.867188 272.082031 264.867188 272.082031 L 262.242188 255.699219 C 253.949219 260.777344 243.183594 256.140625 247.773438 236.308594 C 249.335938 229.144531 253.898438 219.851562 261.746094 218.878906 C 274.148438 217.871094 269.324219 237.414062 269.324219 237.414062 C 265.261719 259.691406 272.949219 278.164062 297.71875 274.980469 C 326.800781 271.242188 336.410156 211.660156 336.410156 211.660156 L 345.574219 210.488281 C 337.019531 243.476562 341.457031 269.355469 365.074219 266.320312 C 392.828125 262.753906 407.882812 201.394531 407.882812 201.394531 C 414.089844 211.375 415.933594 223.199219 416.4375 230.6875 C 409.183594 232.304688 402.5 234.863281 397.359375 238.25 L 397.414062 241.144531 C 397.710938 259.246094 419.96875 268.9375 432.152344 246.539062 L 432.132812 246.621094 C 442.058594 243.878906 453.058594 246.984375 451.613281 255.144531 C 446.765625 282.40625 350.570312 273.527344 263.921875 284.398438 C 192.699219 293.316406 134.710938 327.539062 132.832031 382.488281 C 132.171875 401.714844 138.414062 415.125 147.351562 424.507812 C 152.414062 439.96875 168.199219 449.816406 188.371094 449.816406 C 211.402344 449.816406 233.625 443.125 255.105469 436.632812 C 288.121094 426.679688 319.308594 417.269531 352.222656 431.027344 L 360.175781 434.34375 L 359.761719 425.730469 C 359.730469 425.078125 358.980469 410.792969 353.996094 397.933594 C 361.414062 389.296875 375.890625 380.015625 375.890625 380.015625 C 375.886719 380.015625 360.144531 364.554688 327.074219 364.554688 C 302.972656 364.554688 275.640625 371.265625 248.867188 377.839844 C 213.480469 387.574219 191.875 391.261719 178.835938 392.398438 C 177.128906 344.601562 233.28125 315.128906 301.203125 307.566406 C 359.859375 301.023438 421.253906 297.96875 450.535156 279.402344 C 460.914062 272.8125 468.390625 265.621094 468.695312 253.746094 C 469.070312 239.148438 454.207031 230.519531 436.328125 230.105469 "/>
<path style=" stroke:none;fill-rule:nonzero;fill:rgb(100%,100%,100%);fill-opacity:1;" d="M 200.074219 417.59375 L 200.074219 411.347656 C 203.128906 411.167969 204.65625 411 207.707031 410.566406 L 207.707031 413.046875 C 209.234375 412.832031 209.996094 412.707031 211.519531 412.433594 L 211.523438 412.433594 L 211.542969 405.765625 L 211.523438 405.765625 C 210 406.046875 209.238281 406.164062 207.707031 406.390625 L 207.707031 408.339844 L 205.675781 406.667969 C 203.246094 406.988281 200.800781 407.1875 198.351562 407.269531 C 197.253906 408.402344 196.707031 408.964844 195.613281 410.074219 L 195.613281 419.148438 C 196.644531 420.195312 197.164062 420.71875 198.199219 421.738281 C 201.765625 421.613281 203.558594 421.441406 207.136719 420.953125 L 207.136719 427.359375 C 204.5625 427.738281 201.972656 427.984375 199.375 428.097656 L 199.375 425.589844 C 198.097656 425.65625 196.816406 425.6875 195.539062 425.679688 L 195.585938 432.359375 C 197.089844 432.359375 197.84375 432.339844 199.355469 432.257812 L 199.355469 430.046875 C 200.21875 430.894531 200.660156 431.308594 201.535156 432.128906 C 204.460938 431.90625 205.933594 431.734375 208.859375 431.28125 C 209.957031 430.019531 210.5 429.367188 211.597656 428.070312 L 211.597656 418.851562 C 210.566406 417.96875 210.046875 417.519531 209.019531 416.617188 C 206.058594 417.109375 203.070312 417.4375 200.074219 417.59375 "/>
<path style=" stroke:none;fill-rule:nonzero;fill:rgb(100%,100%,100%);fill-opacity:1;" d="M 255.210938 414.824219 L 247.066406 417.234375 L 247.074219 400.613281 C 250.335938 399.660156 251.960938 399.1875 255.214844 398.25 Z M 245.3125 396.910156 C 244.199219 398.359375 243.640625 399.082031 242.527344 400.546875 L 242.523438 419.976562 C 243.632812 420.789062 244.191406 421.183594 245.308594 421.980469 C 249.96875 420.597656 252.300781 419.890625 256.972656 418.519531 L 259.753906 414.890625 L 259.757812 395.570312 C 258.644531 394.753906 258.089844 394.339844 256.976562 393.53125 C 252.3125 394.859375 249.980469 395.554688 245.3125 396.910156 "/>
<path style=" stroke:none;fill-rule:nonzero;fill:rgb(100%,100%,100%);fill-opacity:1;" d="M 277.910156 392.214844 L 279.960938 391.761719 C 279.960938 398.328125 279.960938 401.652344 279.953125 408.207031 C 277.074219 408.851562 275.628906 409.203125 272.746094 409.9375 L 272.75 393.433594 C 273.5625 393.226562 273.972656 393.132812 274.796875 392.945312 L 274.796875 388.824219 C 271.898438 389.507812 269.011719 390.234375 266.136719 391.011719 L 266.136719 395.136719 C 266.964844 394.910156 267.375 394.800781 268.203125 394.585938 L 268.199219 412.523438 L 270.984375 414.585938 C 275.277344 413.457031 277.421875 412.929688 281.714844 411.996094 L 284.5 408.621094 L 284.503906 390.835938 C 285.328125 390.664062 285.742188 390.59375 286.570312 390.449219 L 286.570312 386.351562 C 283.667969 386.863281 280.78125 387.449219 277.910156 388.117188 Z M 277.910156 392.214844 "/>
<path style=" stroke:none;fill-rule:nonzero;fill:rgb(100%,100%,100%);fill-opacity:1;" d="M 218.707031 404.277344 L 218.707031 408.492188 C 220.019531 408.1875 220.671875 408.027344 221.980469 407.707031 L 221.976562 424.367188 C 220.667969 424.699219 220.015625 424.851562 218.707031 425.160156 L 218.707031 429.367188 C 225.46875 427.820312 228.851562 426.804688 235.617188 424.8125 L 235.617188 418.109375 L 231.933594 419.175781 L 231.933594 421.773438 C 229.765625 422.390625 228.6875 422.699219 226.527344 423.289062 L 226.527344 416.621094 C 229.332031 415.851562 230.738281 415.453125 233.542969 414.640625 L 233.550781 411.464844 C 231.214844 412.152344 228.875 412.8125 226.527344 413.449219 L 226.527344 406.410156 C 228.695312 405.820312 229.773438 405.511719 231.933594 404.898438 L 231.933594 407.464844 L 235.621094 406.40625 L 235.625 399.714844 L 235.546875 399.746094 C 228.8125 401.691406 225.449219 402.707031 218.707031 404.277344 "/>
<path style=" stroke:none;fill-rule:nonzero;fill:rgb(88.627452%,14.509805%,19.215687%);fill-opacity:1;" d="M 155.507812 417.46875 L 156.257812 418.152344 L 156.5 419.136719 C 157.757812 424.273438 163.800781 441.042969 188.375 441.042969 C 210.105469 441.042969 231.699219 434.523438 252.574219 428.226562 C 284.039062 418.734375 316.539062 408.933594 350.5 420.949219 C 349.953125 416.527344 348.851562 409.886719 346.667969 403.46875 C 346.070312 401.699219 345.386719 399.960938 344.613281 398.257812 L 343.714844 396.308594 L 345.117188 394.6875 C 346.832031 392.699219 348.765625 390.652344 350.871094 388.582031 C 351.429688 388.042969 351.96875 387.527344 352.484375 387.035156 L 352.578125 386.945312 C 354 385.601562 355.511719 384.246094 357.074219 382.898438 L 357.316406 382.6875 C 357.964844 382.128906 358.585938 381.601562 359.179688 381.109375 L 359.371094 380.960938 L 360.3125 380.171875 C 331.617188 365.847656 283.585938 378.285156 241.144531 389.289062 C 199.769531 400.007812 164.039062 409.257812 149.160156 394.085938 L 149.101562 394.03125 C 145.734375 390.414062 143.730469 385.835938 142.550781 381.265625 C 141.484375 392.226562 143.378906 406.414062 155.507812 417.46875 "/>
<path style=" stroke:none;fill-rule:nonzero;fill:rgb(100%,100%,100%);fill-opacity:1;" d="M 307.402344 404.402344 C 305.292969 404.464844 303.1875 404.597656 301.085938 404.796875 L 301.089844 388.546875 C 302.390625 388.441406 303.035156 388.386719 304.332031 388.3125 L 304.332031 384.160156 C 300.628906 384.359375 296.9375 384.730469 293.269531 385.273438 L 293.269531 389.429688 C 294.582031 389.25 295.234375 389.160156 296.546875 389.003906 L 296.546875 405.226562 C 295.234375 405.386719 294.582031 405.476562 293.269531 405.671875 L 293.261719 409.867188 C 300.394531 408.8125 303.960938 408.464844 311.09375 408.464844 L 311.09375 401.859375 C 309.613281 401.859375 308.878906 401.871094 307.402344 401.917969 Z M 307.402344 404.402344 "/>
<path style=" stroke:none;fill-rule:nonzero;fill:rgb(10.196079%,10.588235%,18.039216%);fill-opacity:1;" d="M 282.132812 43.976562 L 250.179688 12.023438 L 196.585938 65.605469 C 211.949219 63.808594 227.566406 59.101562 243.886719 54.1875 C 256.359375 50.429688 269.0625 46.585938 282.132812 43.976562 "/>
<path style=" stroke:none;fill-rule:nonzero;fill:rgb(10.196079%,10.588235%,18.039216%);fill-opacity:1;" d="M 118.113281 144.082031 C 125.945312 147.464844 132.734375 152.101562 138.195312 157.863281 C 139.980469 159.753906 141.597656 161.726562 143.046875 163.78125 C 145.324219 160.964844 147.722656 158.222656 150.242188 155.5625 C 155.214844 150.3125 160.582031 145.457031 166.304688 141.035156 C 150.222656 140.074219 138.597656 136.199219 130.386719 131.804688 Z M 118.113281 144.082031 "/>
<path style=" stroke:none;fill-rule:nonzero;fill:rgb(10.196079%,10.588235%,18.039216%);fill-opacity:1;" d="M 357.605469 119.441406 C 358.019531 118.945312 358.632812 118.199219 359.351562 117.210938 L 359.871094 116.484375 C 359.882812 116.460938 359.898438 116.441406 359.910156 116.425781 C 360.070312 116.199219 360.230469 115.964844 360.394531 115.71875 C 360.425781 115.65625 360.464844 115.605469 360.503906 115.5625 L 360.941406 114.867188 L 361.097656 114.628906 L 361.511719 113.957031 C 361.570312 113.855469 361.632812 113.753906 361.695312 113.65625 L 362.082031 112.980469 C 362.148438 112.851562 362.21875 112.726562 362.289062 112.609375 L 362.660156 111.914062 L 362.875 111.507812 L 363.242188 110.75 C 363.304688 110.617188 363.367188 110.507812 363.421875 110.382812 C 363.605469 109.980469 363.78125 109.582031 363.949219 109.183594 C 365.578125 105.390625 366.4375 101.433594 366.4375 97.496094 C 366.382812 89.847656 363.707031 84.34375 360.535156 80.34375 C 359.890625 79.535156 359.210938 78.757812 358.488281 78.019531 C 357.097656 76.609375 355.605469 75.304688 354.019531 74.117188 C 352.515625 69.273438 349.910156 64.839844 346.410156 61.167969 C 345.003906 59.683594 343.46875 58.324219 341.820312 57.105469 C 334.351562 51.527344 324.304688 48.347656 312.84375 48.347656 C 296.289062 48.347656 280.15625 51.804688 264.414062 56.152344 C 263.730469 56.339844 263.046875 56.535156 262.363281 56.738281 C 261.523438 56.960938 260.691406 57.199219 259.859375 57.449219 C 257.964844 57.988281 256.078125 58.535156 254.199219 59.09375 L 252.171875 59.695312 C 250.140625 60.300781 248.121094 60.910156 246.113281 61.523438 L 245.847656 61.601562 L 242.667969 62.5625 C 242.292969 62.675781 241.917969 62.777344 241.546875 62.90625 C 240.695312 63.15625 239.84375 63.40625 238.988281 63.65625 C 238.578125 63.789062 238.160156 63.914062 237.742188 64.035156 L 235.0625 64.824219 C 234.742188 64.914062 234.425781 65.007812 234.109375 65.097656 C 232.925781 65.449219 231.738281 65.789062 230.554688 66.121094 C 230.316406 66.195312 230.074219 66.261719 229.832031 66.320312 C 228.886719 66.59375 227.945312 66.859375 227.007812 67.117188 C 226.628906 67.207031 226.253906 67.324219 225.875 67.417969 L 223.347656 68.097656 C 222.972656 68.179688 222.605469 68.292969 222.234375 68.386719 C 221.171875 68.65625 220.101562 68.921875 219.03125 69.191406 L 218.695312 69.273438 C 217.523438 69.5625 216.351562 69.835938 215.171875 70.09375 C 214.847656 70.179688 214.523438 70.253906 214.195312 70.316406 L 211.613281 70.882812 L 210.472656 71.117188 C 209.597656 71.296875 208.730469 71.464844 207.871094 71.625 C 207.542969 71.683594 207.222656 71.742188 206.90625 71.804688 C 205.734375 72.019531 204.566406 72.21875 203.398438 72.402344 L 202.859375 72.492188 C 201.867188 72.640625 200.882812 72.785156 199.898438 72.921875 C 199.523438 72.964844 199.148438 73.011719 198.777344 73.066406 C 197.953125 73.167969 197.128906 73.265625 196.300781 73.355469 C 194.96875 73.503906 193.632812 73.625 192.292969 73.714844 L 191.648438 73.777344 C 190.488281 73.855469 189.328125 73.917969 188.164062 73.964844 L 187.210938 73.992188 C 186.355469 74.003906 185.492188 74.015625 184.632812 74.027344 L 184.058594 74.042969 C 183.683594 74.035156 183.308594 74.03125 182.929688 74.027344 L 182.242188 74.015625 C 181.347656 74.007812 180.453125 73.984375 179.5625 73.945312 C 179.40625 73.941406 179.25 73.929688 179.101562 73.917969 L 176.824219 73.78125 L 176.050781 73.714844 C 175.285156 73.648438 174.511719 73.578125 173.734375 73.503906 C 173.597656 73.484375 173.460938 73.46875 173.328125 73.445312 C 172.421875 73.351562 171.519531 73.238281 170.621094 73.109375 C 170.390625 73.074219 170.164062 73.039062 169.933594 72.996094 C 169.222656 72.894531 168.511719 72.785156 167.796875 72.664062 C 166.648438 72.453125 165.5 72.226562 164.359375 71.984375 L 164.09375 71.917969 C 163.273438 71.738281 162.449219 71.546875 161.621094 71.335938 C 161.363281 71.28125 161.105469 71.214844 160.847656 71.140625 C 160.105469 70.945312 159.363281 70.742188 158.613281 70.527344 C 158.433594 70.46875 158.25 70.433594 158.0625 70.371094 C 157.160156 70.101562 156.25 69.820312 155.332031 69.519531 C 155.121094 69.441406 154.90625 69.367188 154.695312 69.292969 C 153.972656 69.046875 153.25 68.792969 152.523438 68.527344 C 152.269531 68.429688 152.011719 68.328125 151.75 68.226562 C 150.832031 67.890625 149.914062 67.527344 148.996094 67.136719 L 141.035156 63.8125 L 141.453125 72.429688 L 141.535156 73.648438 L 141.535156 73.710938 L 141.660156 75.1875 L 141.894531 77.421875 L 142.066406 78.851562 C 142.769531 84.351562 144.234375 92.535156 147.21875 100.222656 C 143.511719 104.550781 138.035156 109.019531 133.492188 112.429688 L 132.65625 113.050781 C 131.023438 114.246094 129.371094 115.417969 127.703125 116.558594 C 127.515625 116.6875 127.34375 116.804688 127.179688 116.910156 L 126.445312 117.414062 C 126.351562 117.46875 126.265625 117.523438 126.1875 117.578125 L 125.78125 117.847656 L 125.445312 118.066406 C 125.386719 118.101562 125.351562 118.121094 125.335938 118.121094 C 125.332031 118.136719 125.324219 118.144531 125.324219 118.144531 C 125.328125 118.144531 139.128906 131.683594 168.007812 133.421875 L 168.144531 133.429688 C 168.941406 133.46875 169.75 133.503906 170.566406 133.53125 L 171.097656 133.554688 C 171.972656 133.589844 172.863281 133.601562 173.765625 133.601562 L 174.144531 133.609375 C 183.183594 133.601562 192.671875 132.652344 202.425781 131.132812 L 204.867188 130.742188 C 211.507812 129.625 218.117188 128.332031 224.691406 126.867188 C 229.90625 125.730469 235.136719 124.507812 240.378906 123.242188 C 243.332031 122.527344 246.28125 121.8125 249.222656 121.09375 L 250.449219 120.792969 L 252.351562 120.328125 C 297.1875 108.117188 311.570312 105.757812 319.074219 104.777344 C 320.738281 104.566406 322.078125 104.410156 323.324219 104.230469 C 341.960938 101.648438 345.402344 109.375 345.980469 111.433594 C 346.066406 111.75 346.089844 111.929688 346.089844 111.929688 C 346.089844 111.929688 340.089844 109.84375 322.1875 112.394531 L 322.207031 112.378906 C 314.664062 113.441406 304.382812 115.324219 290.480469 118.511719 C 310.796875 124.738281 329.394531 135.601562 344.800781 150.242188 C 353.371094 158.339844 360.863281 167.503906 367.105469 177.507812 L 384.507812 192.171875 C 386.472656 185.007812 387.691406 179.867188 387.707031 179.796875 L 388.964844 174.472656 L 409.945312 171.773438 Z M 357.605469 119.441406 "/>
<path style=" stroke:none;fill-rule:nonzero;fill:rgb(100%,100%,100%);fill-opacity:1;" d="M 200.074219 417.59375 L 200.074219 411.347656 C 203.128906 411.167969 204.65625 411 207.707031 410.566406 L 207.707031 413.046875 C 209.234375 412.832031 209.996094 412.707031 211.519531 412.433594 L 211.523438 412.433594 L 211.542969 405.765625 L 211.523438 405.765625 C 210 406.046875 209.238281 406.164062 207.707031 406.390625 L 207.707031 408.339844 L 205.675781 406.667969 C 203.246094 406.988281 200.800781 407.1875 198.351562 407.269531 C 197.253906 408.402344 196.707031 408.964844 195.613281 410.074219 L 195.613281 419.148438 C 196.644531 420.195312 197.164062 420.71875 198.199219 421.738281 C 201.765625 421.613281 203.558594 421.441406 207.136719 420.953125 L 207.136719 427.359375 C 204.5625 427.738281 201.972656 427.984375 199.375 428.097656 L 199.375 425.589844 C 198.097656 425.65625 196.816406 425.6875 195.539062 425.679688 L 195.585938 432.359375 C 197.089844 432.359375 197.84375 432.339844 199.355469 432.257812 L 199.355469 430.046875 C 200.21875 430.894531 200.660156 431.308594 201.535156 432.128906 C 204.460938 431.90625 205.933594 431.734375 208.859375 431.28125 C 209.957031 430.019531 210.5 429.367188 211.597656 428.070312 L 211.597656 418.851562 C 210.566406 417.96875 210.046875 417.519531 209.019531 416.617188 C 206.058594 417.109375 203.070312 417.4375 200.074219 417.59375 "/>
<path style=" stroke:none;fill-rule:nonzero;fill:rgb(100%,100%,100%);fill-opacity:1;" d="M 255.210938 414.824219 L 247.066406 417.234375 L 247.074219 400.613281 C 250.335938 399.660156 251.960938 399.1875 255.214844 398.25 Z M 245.3125 396.910156 C 244.199219 398.359375 243.640625 399.082031 242.527344 400.546875 L 242.523438 419.976562 C 243.632812 420.789062 244.191406 421.183594 245.308594 421.980469 C 249.96875 420.597656 252.300781 419.890625 256.972656 418.519531 L 259.753906 414.890625 L 259.757812 395.570312 C 258.644531 394.753906 258.089844 394.339844 256.976562 393.53125 C 252.3125 394.859375 249.980469 395.554688 245.3125 396.910156 "/>
<path style=" stroke:none;fill-rule:nonzero;fill:rgb(100%,100%,100%);fill-opacity:1;" d="M 277.910156 392.214844 L 279.960938 391.761719 C 279.960938 398.328125 279.960938 401.652344 279.953125 408.207031 C 277.074219 408.851562 275.628906 409.203125 272.746094 409.9375 L 272.75 393.433594 C 273.5625 393.226562 273.972656 393.132812 274.796875 392.945312 L 274.796875 388.824219 C 271.898438 389.507812 269.011719 390.234375 266.136719 391.011719 L 266.136719 395.136719 C 266.964844 394.910156 267.375 394.800781 268.203125 394.585938 L 268.199219 412.523438 L 270.984375 414.585938 C 275.277344 413.457031 277.421875 412.929688 281.714844 411.996094 L 284.5 408.621094 L 284.503906 390.835938 C 285.328125 390.664062 285.742188 390.59375 286.570312 390.449219 L 286.570312 386.351562 C 283.667969 386.863281 280.78125 387.449219 277.910156 388.117188 Z M 277.910156 392.214844 "/>
<path style=" stroke:none;fill-rule:nonzero;fill:rgb(100%,100%,100%);fill-opacity:1;" d="M 218.707031 404.277344 L 218.707031 408.492188 C 220.019531 408.1875 220.671875 408.027344 221.980469 407.707031 L 221.976562 424.367188 C 220.667969 424.699219 220.015625 424.851562 218.707031 425.160156 L 218.707031 429.367188 C 225.46875 427.820312 228.851562 426.804688 235.617188 424.8125 L 235.617188 418.109375 L 231.933594 419.175781 L 231.933594 421.773438 C 229.765625 422.390625 228.6875 422.699219 226.527344 423.289062 L 226.527344 416.621094 C 229.332031 415.851562 230.738281 415.453125 233.542969 414.640625 L 233.550781 411.464844 C 231.214844 412.152344 228.875 412.8125 226.527344 413.449219 L 226.527344 406.410156 C 228.695312 405.820312 229.773438 405.511719 231.933594 404.898438 L 231.933594 407.464844 L 235.621094 406.40625 L 235.625 399.714844 L 235.546875 399.746094 C 228.8125 401.691406 225.449219 402.707031 218.707031 404.277344 "/>
<path style=" stroke:none;fill-rule:nonzero;fill:rgb(100%,100%,100%);fill-opacity:1;" d="M 307.402344 404.402344 C 305.292969 404.464844 303.1875 404.597656 301.085938 404.796875 L 301.089844 388.546875 C 302.390625 388.441406 303.035156 388.386719 304.332031 388.3125 L 304.332031 384.160156 C 300.628906 384.359375 296.9375 384.730469 293.269531 385.273438 L 293.269531 389.429688 C 294.582031 389.25 295.234375 389.160156 296.546875 389.003906 L 296.546875 405.226562 C 295.234375 405.386719 294.582031 405.476562 293.269531 405.671875 L 293.261719 409.867188 C 300.394531 408.8125 303.960938 408.464844 311.09375 408.464844 L 311.09375 401.859375 C 309.613281 401.859375 308.878906 401.871094 307.402344 401.917969 Z M 307.402344 404.402344 "/>
<path style=" stroke:none;fill-rule:nonzero;fill:rgb(88.627452%,14.509805%,19.215687%);fill-opacity:1;" d="M 254.511719 110.90625 C 258.359375 109.925781 262.1875 108.9375 266.007812 107.992188 L 273.335938 106.140625 C 299.992188 99.390625 323.003906 93.566406 339.078125 95.039062 C 349.734375 96.027344 353.296875 102.898438 354.480469 107.714844 C 356.03125 105.214844 357.738281 101.578125 357.742188 97.550781 C 357.667969 89.273438 353.535156 84.550781 347.347656 80.003906 L 346.394531 79.300781 L 346.121094 78.148438 C 345.703125 76.453125 345.113281 74.808594 344.351562 73.238281 C 339.496094 63.246094 327.429688 57.054688 312.847656 57.054688 C 291.097656 57.054688 269.503906 63.570312 248.628906 69.863281 C 217.144531 79.363281 184.625 89.175781 150.632812 77.109375 C 151.1875 81.65625 152.292969 88.289062 154.480469 94.722656 C 155.121094 96.609375 155.808594 98.351562 156.535156 99.945312 L 157.414062 101.851562 L 156.046875 103.445312 C 154.210938 105.546875 152.292969 107.578125 150.296875 109.53125 C 149.730469 110.078125 149.210938 110.585938 148.6875 111.070312 L 148.597656 111.164062 C 147.167969 112.503906 145.652344 113.875 144.097656 115.207031 L 143.875 115.398438 C 143.257812 115.941406 142.628906 116.476562 141.992188 117 L 141.8125 117.144531 L 140.753906 118.011719 C 169.363281 132.675781 212.648438 121.617188 254.511719 110.90625 "/>
<path style=" stroke:none;fill-rule:nonzero;fill:rgb(100%,100%,100%);fill-opacity:1;" d="M 188.496094 110.933594 C 186.34375 111.125 184.191406 111.273438 182.035156 111.375 L 182.046875 95.089844 C 184.636719 94.953125 185.925781 94.847656 188.519531 94.609375 Z M 192.953125 111.882812 L 192.980469 92.777344 C 191.890625 91.816406 191.339844 91.320312 190.257812 90.347656 C 183.898438 91.019531 180.71875 91.21875 174.371094 91.21875 L 174.371094 95.292969 C 175.652344 95.292969 176.296875 95.285156 177.585938 95.253906 L 177.578125 111.535156 C 176.507812 111.558594 175.441406 111.566406 174.371094 111.5625 L 174.371094 115.6875 C 180.703125 115.6875 183.878906 115.515625 190.210938 114.921875 C 191.308594 113.71875 191.855469 113.117188 192.953125 111.882812 "/>
<path style=" stroke:none;fill-rule:nonzero;fill:rgb(100%,100%,100%);fill-opacity:1;" d="M 204.691406 92.398438 C 207.890625 91.835938 209.488281 91.511719 212.6875 90.847656 L 212.628906 107.453125 C 209.4375 108.074219 207.835938 108.359375 204.640625 108.894531 Z M 214.339844 111.34375 C 215.433594 109.996094 215.976562 109.339844 217.074219 107.976562 L 217.152344 88.511719 C 216.066406 87.621094 215.515625 87.183594 214.433594 86.289062 C 210.632812 87.144531 206.8125 87.898438 202.972656 88.550781 L 200.230469 91.789062 L 200.183594 110.984375 C 201.273438 111.921875 201.820312 112.414062 202.90625 113.347656 C 207.480469 112.65625 209.761719 112.25 214.339844 111.34375 "/>
<path style=" stroke:none;fill-rule:nonzero;fill:rgb(100%,100%,100%);fill-opacity:1;" d="M 228.894531 87.066406 C 232.09375 86.265625 233.691406 85.839844 236.894531 84.992188 L 236.792969 101.9375 C 233.59375 102.75 232.003906 103.148438 228.808594 103.90625 Z M 238.492188 105.839844 L 241.234375 102.257812 L 241.359375 82.390625 C 240.273438 81.542969 239.734375 81.113281 238.644531 80.253906 C 234.0625 81.488281 231.769531 82.101562 227.1875 83.257812 L 224.441406 86.789062 L 224.347656 106.386719 L 227.0625 108.601562 C 231.636719 107.550781 233.917969 106.984375 238.492188 105.839844 "/>
<path style=" stroke:none;fill-rule:nonzero;fill:rgb(100%,100%,100%);fill-opacity:1;" d="M 280.046875 85.820312 L 282.328125 76.9375 L 284.425781 84.8125 C 282.675781 85.210938 281.800781 85.40625 280.046875 85.820312 M 286.734375 93.535156 Z M 286.734375 93.535156 C 289.082031 92.996094 290.253906 92.753906 292.605469 92.269531 L 292.703125 87.976562 L 290.390625 88.441406 C 288.503906 81.828125 286.589844 75.210938 284.734375 68.574219 L 284.058594 68.707031 L 280.246094 69.5 L 276.382812 70.371094 L 276.339844 74.695312 L 278.898438 74.105469 C 277.3125 80.140625 275.738281 86.183594 274.171875 92.230469 L 271.726562 92.84375 L 271.6875 97.226562 C 274.023438 96.632812 275.191406 96.328125 277.535156 95.746094 L 277.5625 95.738281 L 277.5625 95.632812 L 279.007812 90.058594 C 281.578125 89.433594 282.855469 89.128906 285.433594 88.554688 C 285.957031 90.527344 286.214844 91.523438 286.734375 93.53125 Z M 286.734375 93.535156 "/>
<path style=" stroke:none;fill-rule:nonzero;fill:rgb(100%,100%,100%);fill-opacity:1;" d="M 319.667969 68.746094 L 319.667969 64.707031 C 315.898438 64.707031 314.015625 64.78125 310.25 65.039062 L 310.222656 69.160156 C 311.246094 69.070312 311.765625 69.046875 312.789062 68.988281 L 312.734375 79.585938 C 309.925781 73.984375 308.535156 71.230469 305.777344 65.398438 C 303.511719 65.605469 301.253906 65.859375 299 66.164062 L 298.949219 70.371094 C 300.03125 70.222656 300.582031 70.148438 301.664062 70.019531 C 301.597656 76.640625 301.570312 79.804688 301.492188 86.429688 C 300.582031 86.570312 299.667969 86.71875 298.757812 86.878906 L 298.707031 91.109375 C 302.523438 90.457031 304.421875 90.164062 308.242188 89.667969 L 308.273438 85.496094 C 307.269531 85.621094 306.773438 85.679688 305.769531 85.816406 L 305.855469 75.074219 C 308.679688 80.6875 310.105469 83.398438 312.976562 89.140625 C 315.648438 88.863281 316.980469 88.765625 319.667969 88.605469 L 319.667969 84.527344 L 317.019531 84.671875 L 317.050781 68.800781 C 318.097656 68.769531 318.625 68.761719 319.667969 68.746094 "/>
<path style=" stroke:none;fill-rule:nonzero;fill:rgb(100%,100%,100%);fill-opacity:1;" d="M 253.6875 86.894531 L 253.734375 80.503906 C 256.785156 79.679688 258.3125 79.273438 261.359375 78.472656 L 261.335938 81.035156 C 262.859375 80.632812 263.621094 80.433594 265.148438 80.046875 L 265.152344 80.046875 L 265.226562 73.085938 C 265.222656 73.085938 265.21875 73.089844 265.214844 73.097656 C 263.675781 73.480469 262.917969 73.6875 261.390625 74.085938 L 261.375 76.152344 C 260.566406 75.546875 260.164062 75.238281 259.359375 74.625 C 256.425781 75.402344 254.964844 75.796875 252.03125 76.597656 L 249.28125 80.25 C 249.25 83.972656 249.238281 85.820312 249.21875 89.511719 C 250.238281 90.320312 250.753906 90.710938 251.777344 91.503906 L 260.695312 89.132812 L 260.648438 95.703125 C 257.550781 96.511719 256 96.921875 252.910156 97.742188 L 252.929688 95.152344 L 249.09375 96.171875 L 249.09375 103.109375 L 252.851562 102.121094 C 252.855469 101.179688 252.855469 100.722656 252.871094 99.78125 C 253.734375 100.480469 254.164062 100.839844 255.03125 101.558594 C 257.953125 100.777344 259.414062 100.394531 262.339844 99.628906 L 265.089844 96.011719 L 265.167969 86.574219 L 262.613281 84.527344 C 259.039062 85.460938 257.253906 85.941406 253.6875 86.894531 "/>
<path style=" stroke:none;fill-rule:nonzero;fill:rgb(88.627452%,14.509805%,19.215687%);fill-opacity:1;" d="M 40.507812 250.183594 L 51.375 239.335938 L 52.09375 229.195312 L 31.058594 250.183594 L 49.324219 268.398438 L 49.941406 259.605469 Z M 40.507812 250.183594 "/>
<path style=" stroke:none;fill-rule:nonzero;fill:rgb(88.627452%,14.509805%,19.215687%);fill-opacity:1;" d="M 250.191406 459.460938 L 240.003906 449.289062 C 237.539062 449.988281 235.058594 450.65625 232.570312 451.296875 L 250.191406 468.890625 L 282.003906 437.128906 C 277.710938 438.226562 273.363281 439.449219 268.945312 440.738281 Z M 250.191406 459.460938 "/>
<path style=" stroke:none;fill-rule:nonzero;fill:rgb(88.627452%,14.509805%,19.215687%);fill-opacity:1;" d="M 407.46875 302.460938 L 350.515625 359.320312 C 353.003906 359.898438 355.464844 360.589844 357.886719 361.390625 L 419.628906 299.765625 C 415.597656 300.757812 411.542969 301.65625 407.46875 302.460938 "/>
<path style=" stroke:none;fill-rule:nonzero;fill:rgb(88.627452%,14.509805%,19.215687%);fill-opacity:1;" d="M 96.796875 306.367188 C 96.390625 306.429688 95.976562 306.488281 95.566406 306.539062 L 88.382812 307.394531 L 132.140625 351.0625 C 133.09375 348.933594 134.136719 346.835938 135.273438 344.765625 Z M 96.796875 306.367188 "/>
<path style=" stroke:none;fill-rule:nonzero;fill:rgb(88.627452%,14.509805%,19.215687%);fill-opacity:1;" d="M 233.890625 57.179688 L 250.195312 40.898438 L 259.023438 49.714844 C 261.476562 49.015625 263.945312 48.335938 266.425781 47.671875 L 250.195312 31.476562 L 220.765625 60.84375 C 225.09375 59.726562 229.472656 58.484375 233.890625 57.179688 "/>
<path style=" stroke:none;fill-rule:nonzero;fill:rgb(88.627452%,14.509805%,19.215687%);fill-opacity:1;" d="M 330.332031 111.464844 C 327.617188 111.695312 324.910156 112.003906 322.210938 112.386719 C 322.09375 112.398438 321.972656 112.410156 321.847656 112.429688 L 388.019531 178.492188 L 388.96875 174.488281 L 392.953125 173.96875 Z M 330.332031 111.464844 "/>
<path style=" stroke:none;fill-rule:nonzero;fill:rgb(88.627452%,14.509805%,19.215687%);fill-opacity:1;" d="M 144.113281 137.351562 L 130.382812 151.050781 C 132.210938 152.378906 133.941406 153.796875 135.578125 155.300781 L 151.707031 139.199219 C 149.003906 138.667969 146.472656 138.050781 144.113281 137.351562 "/>
<path style=" stroke:none;fill-rule:nonzero;fill:rgb(88.627452%,14.509805%,19.215687%);fill-opacity:1;" d="M 314.285156 164.070312 C 315.273438 162.417969 316.15625 160.652344 316.992188 158.984375 C 317.804688 157.242188 318.558594 155.554688 319.21875 153.808594 C 318.292969 154.148438 317.339844 154.402344 316.398438 154.691406 C 315.453125 154.980469 314.492188 155.207031 313.539062 155.457031 C 312.710938 157.144531 311.820312 158.800781 310.867188 160.421875 C 309.886719 162.074219 308.84375 163.6875 307.738281 165.257812 C 308.839844 165.128906 309.929688 164.929688 311.027344 164.734375 C 312.121094 164.570312 313.199219 164.300781 314.285156 164.070312 "/>
<path style=" stroke:none;fill-rule:nonzero;fill:rgb(88.627452%,14.509805%,19.215687%);fill-opacity:1;" d="M 317.046875 163.390625 C 318.707031 164.46875 320.394531 165.410156 322.171875 166.367188 C 323.9375 167.308594 325.761719 168.164062 327.648438 169.011719 L 324.164062 170.234375 L 320.628906 171.3125 C 317.011719 169.316406 313.65625 167.199219 310.546875 164.816406 L 312.183594 164.523438 L 313.8125 164.175781 C 314.898438 163.957031 315.976562 163.683594 317.046875 163.390625 "/>
<path style=" stroke:none;fill-rule:nonzero;fill:rgb(88.627452%,14.509805%,19.215687%);fill-opacity:1;" d="M 330.707031 158.753906 C 331.519531 157.003906 332.21875 155.15625 332.882812 153.417969 C 333.515625 151.59375 334.089844 149.839844 334.570312 148.042969 C 333.683594 148.464844 332.757812 148.824219 331.851562 149.210938 C 330.9375 149.589844 330 149.90625 329.078125 150.261719 C 328.429688 152.023438 327.714844 153.757812 326.933594 155.464844 C 326.128906 157.210938 325.253906 158.925781 324.316406 160.601562 C 325.394531 160.34375 326.464844 160.054688 327.527344 159.738281 C 328.601562 159.46875 329.652344 159.085938 330.707031 158.753906 "/>
<path style=" stroke:none;fill-rule:nonzero;fill:rgb(88.627452%,14.509805%,19.215687%);fill-opacity:1;" d="M 333.386719 157.800781 C 335.144531 158.699219 336.921875 159.464844 338.789062 160.234375 C 340.667969 160.992188 342.574219 161.683594 344.503906 162.304688 C 343.390625 162.832031 342.277344 163.355469 341.160156 163.875 L 337.753906 165.3125 C 334.0625 163.773438 330.488281 161.957031 327.070312 159.878906 L 328.664062 159.425781 L 330.246094 158.910156 C 331.304688 158.574219 332.347656 158.191406 333.386719 157.800781 "/>
<path style=" stroke:none;fill-rule:nonzero;fill:rgb(88.627452%,14.509805%,19.215687%);fill-opacity:1;" d="M 296.972656 166.078125 C 299.527344 163.242188 301.886719 160.234375 304.03125 157.074219 C 303.035156 157.191406 302.039062 157.277344 301.039062 157.332031 L 299.542969 157.429688 L 298.03125 157.46875 C 295.644531 160.457031 293.070312 163.292969 290.324219 165.953125 C 291.433594 166.007812 292.535156 166.027344 293.648438 166.066406 Z M 296.972656 166.078125 "/>
<path style=" stroke:none;fill-rule:nonzero;fill:rgb(88.627452%,14.509805%,19.215687%);fill-opacity:1;" d="M 299.816406 165.996094 C 302.664062 168.792969 305.707031 171.382812 308.921875 173.75 L 307.09375 174 L 305.273438 174.183594 L 303.449219 174.351562 L 301.632812 174.460938 C 298.558594 171.800781 295.75 168.972656 293.164062 166.0625 C 294.277344 166.101562 295.378906 166.078125 296.492188 166.085938 C 297.601562 166.066406 298.707031 166.039062 299.816406 165.996094 "/>
<path style=" stroke:none;fill-rule:nonzero;fill:rgb(88.627452%,14.509805%,19.215687%);fill-opacity:1;" d="M 279.566406 164.933594 C 282.542969 162.507812 285.394531 159.9375 288.121094 157.234375 C 286.0625 157.082031 284 156.875 281.929688 156.609375 C 279.042969 159.15625 276.058594 161.597656 272.988281 163.921875 C 275.175781 164.300781 277.367188 164.640625 279.566406 164.933594 "/>
<path style=" stroke:none;fill-rule:nonzero;fill:rgb(88.627452%,14.509805%,19.215687%);fill-opacity:1;" d="M 282.394531 165.289062 C 284.699219 168.4375 287.179688 171.503906 289.890625 174.511719 C 287.5 174.386719 285.132812 174.199219 282.792969 173.949219 C 280.332031 170.859375 278 167.671875 275.800781 164.390625 C 277.992188 164.726562 280.1875 165.039062 282.394531 165.289062 "/>
<path style=" stroke:none;fill-rule:nonzero;fill:rgb(88.627452%,14.509805%,19.215687%);fill-opacity:1;" d="M 262.386719 161.855469 C 265.578125 159.625 268.71875 157.34375 271.761719 155.003906 C 269.660156 154.605469 267.546875 154.1875 265.429688 153.75 C 262.292969 155.988281 259.113281 158.214844 255.890625 160.421875 C 258.054688 160.910156 260.21875 161.390625 262.386719 161.855469 "/>
<path style=" stroke:none;fill-rule:nonzero;fill:rgb(88.627452%,14.509805%,19.215687%);fill-opacity:1;" d="M 265.171875 162.433594 C 267.195312 165.769531 269.296875 169.066406 271.53125 172.359375 C 269.269531 171.96875 267.011719 171.546875 264.757812 171.09375 C 262.652344 167.75 260.640625 164.410156 258.671875 161.046875 C 260.832031 161.511719 263.003906 161.988281 265.171875 162.433594 "/>
<path style=" stroke:none;fill-rule:nonzero;fill:rgb(88.627452%,14.509805%,19.215687%);fill-opacity:1;" d="M 245.355469 158.03125 L 255.011719 151.433594 L 248.503906 149.960938 C 245.257812 152.15625 242.023438 154.378906 238.851562 156.628906 C 241.011719 157.085938 243.179688 157.550781 245.355469 158.03125 "/>
<path style=" stroke:none;fill-rule:nonzero;fill:rgb(88.627452%,14.509805%,19.215687%);fill-opacity:1;" d="M 248.128906 158.652344 L 254.003906 168.769531 L 247.503906 167.296875 C 245.558594 163.9375 243.621094 160.566406 241.636719 157.222656 Z M 248.128906 158.652344 "/>
<path style=" stroke:none;fill-rule:nonzero;fill:rgb(88.627452%,14.509805%,19.215687%);fill-opacity:1;" d="M 228.230469 154.648438 C 231.296875 152.253906 234.488281 149.9375 237.71875 147.660156 C 235.476562 147.21875 233.21875 146.800781 230.933594 146.414062 C 227.757812 148.742188 224.65625 151.175781 221.640625 153.710938 C 223.84375 153.980469 226.039062 154.292969 228.230469 154.648438 "/>
<path style=" stroke:none;fill-rule:nonzero;fill:rgb(88.627452%,14.509805%,19.215687%);fill-opacity:1;" d="M 231.035156 155.117188 C 233.152344 158.394531 235.152344 161.691406 237.109375 165.015625 C 234.988281 164.578125 232.878906 164.164062 230.78125 163.777344 C 228.769531 160.480469 226.664062 157.246094 224.460938 154.078125 L 227.75 154.578125 Z M 231.035156 155.117188 "/>
<path style=" stroke:none;fill-rule:nonzero;fill:rgb(88.627452%,14.509805%,19.215687%);fill-opacity:1;" d="M 210.871094 152.875 C 213.617188 150.085938 216.570312 147.457031 219.660156 144.875 L 216.121094 144.566406 L 212.558594 144.355469 C 210.351562 146.378906 208.226562 148.488281 206.183594 150.679688 C 205.507812 151.402344 204.855469 152.148438 204.21875 152.867188 C 205.328125 152.835938 206.433594 152.800781 207.546875 152.816406 L 209.207031 152.824219 Z M 210.871094 152.875 "/>
<path style=" stroke:none;fill-rule:nonzero;fill:rgb(88.627452%,14.509805%,19.215687%);fill-opacity:1;" d="M 213.71875 153 C 216.199219 155.984375 218.480469 159.101562 220.617188 162.214844 L 217.519531 161.878906 C 216.484375 161.800781 215.453125 161.691406 214.429688 161.628906 C 212.136719 158.558594 209.679688 155.617188 207.066406 152.816406 C 209.285156 152.804688 211.503906 152.867188 213.71875 153 "/>
<path style=" stroke:none;fill-rule:nonzero;fill:rgb(88.627452%,14.509805%,19.215687%);fill-opacity:1;" d="M 193.464844 153.863281 C 194.5625 152.253906 195.722656 150.660156 196.949219 149.082031 C 198.179688 147.539062 199.46875 145.949219 200.832031 144.457031 C 199.621094 144.527344 198.40625 144.628906 197.199219 144.761719 C 195.980469 144.851562 194.777344 145.035156 193.566406 145.195312 C 192.316406 146.785156 191.144531 148.484375 190.03125 150.105469 C 188.933594 151.808594 187.894531 153.445312 186.941406 155.167969 C 189.101562 154.648438 191.277344 154.214844 193.464844 153.863281 "/>
<path style=" stroke:none;fill-rule:nonzero;fill:rgb(88.627452%,14.509805%,19.215687%);fill-opacity:1;" d="M 196.285156 153.476562 C 197.769531 154.707031 199.199219 156.050781 200.570312 157.339844 C 201.941406 158.707031 203.242188 160.019531 204.496094 161.425781 C 202.492188 161.496094 200.488281 161.632812 198.492188 161.84375 C 197.148438 160.542969 195.753906 159.300781 194.289062 158.066406 C 192.832031 156.894531 191.300781 155.652344 189.722656 154.542969 C 191.890625 154.089844 194.085938 153.753906 196.285156 153.476562 "/>
<path style=" stroke:none;fill-rule:nonzero;fill:rgb(88.627452%,14.509805%,19.215687%);fill-opacity:1;" d="M 176.640625 158.390625 C 178.074219 154.746094 179.832031 151.1875 181.886719 147.625 C 180.707031 147.972656 179.53125 148.304688 178.363281 148.6875 C 177.199219 149.085938 176.039062 149.460938 174.890625 149.886719 C 173.175781 153.496094 171.722656 157.226562 170.535156 161.042969 C 171.535156 160.550781 172.542969 160.089844 173.5625 159.660156 L 175.089844 158.996094 Z M 176.640625 158.390625 "/>
<path style=" stroke:none;fill-rule:nonzero;fill:rgb(88.627452%,14.509805%,19.215687%);fill-opacity:1;" d="M 179.316406 157.40625 C 180.179688 157.875 181.027344 158.335938 181.851562 158.800781 C 182.6875 159.296875 183.507812 159.796875 184.3125 160.308594 C 185.914062 161.296875 187.472656 162.394531 188.953125 163.488281 C 187.027344 163.957031 185.117188 164.503906 183.234375 165.125 C 180.832031 163.613281 178.335938 162.253906 175.769531 161.046875 C 174.902344 160.632812 174.023438 160.234375 173.128906 159.847656 C 174.140625 159.40625 175.160156 158.960938 176.195312 158.566406 C 177.230469 158.167969 178.261719 157.753906 179.316406 157.40625 "/>
<path style=" stroke:none;fill-rule:nonzero;fill:rgb(88.627452%,14.509805%,19.215687%);fill-opacity:1;" d="M 161.105469 166.292969 C 161.808594 162.449219 162.785156 158.589844 164.035156 154.710938 C 161.019531 157.125 157.15625 161.394531 157.15625 161.394531 C 156.679688 163.382812 156.835938 162.246094 156.46875 164.1875 C 156.140625 166.125 155.847656 168.070312 155.59375 170.019531 L 158.324219 168.113281 C 159.230469 167.46875 160.179688 166.894531 161.105469 166.292969 "/>
<path style=" stroke:none;fill-rule:nonzero;fill:rgb(88.627452%,14.509805%,19.215687%);fill-opacity:1;" d="M 163.53125 164.804688 C 164.46875 165.074219 165.390625 165.359375 166.292969 165.65625 C 167.21875 165.957031 168.125 166.292969 169.023438 166.605469 C 169.917969 166.945312 170.796875 167.285156 171.664062 167.625 C 172.542969 168 173.40625 168.378906 174.25 168.757812 C 172.4375 169.625 170.660156 170.5625 168.917969 171.5625 C 165.417969 170.304688 161.726562 169.238281 157.929688 168.386719 C 158.828125 167.738281 159.777344 167.15625 160.699219 166.550781 L 162.097656 165.648438 Z M 163.53125 164.804688 "/>
<path style=" stroke:none;fill-rule:nonzero;fill:rgb(88.627452%,14.509805%,19.215687%);fill-opacity:1;" d="M 208.148438 354.128906 C 205.828125 357.4375 203.269531 360.578125 200.5 363.519531 L 202.359375 363.429688 L 204.210938 363.285156 L 206.0625 363.117188 L 207.894531 362.902344 C 210.472656 359.683594 212.746094 356.34375 214.792969 352.976562 C 213.695312 353.210938 212.585938 353.394531 211.480469 353.609375 C 210.375 353.804688 209.261719 353.953125 208.148438 354.128906 "/>
<path style=" stroke:none;fill-rule:nonzero;fill:rgb(88.627452%,14.509805%,19.215687%);fill-opacity:1;" d="M 228.144531 349.367188 C 224.695312 347.453125 221.355469 345.402344 218.210938 343.253906 C 220.226562 342.71875 222.246094 342.132812 224.265625 341.496094 C 227.554688 343.492188 230.984375 345.347656 234.507812 347.15625 C 232.398438 347.929688 230.277344 348.664062 228.144531 349.367188 "/>
<path style=" stroke:none;fill-rule:nonzero;fill:rgb(88.627452%,14.509805%,19.215687%);fill-opacity:1;" d="M 225.394531 350.234375 C 223.644531 353.851562 221.710938 357.375 219.605469 360.796875 C 221.960938 360.230469 224.292969 359.628906 226.582031 358.933594 C 228.519531 355.371094 230.214844 351.738281 231.796875 348.128906 C 229.679688 348.875 227.542969 349.578125 225.394531 350.234375 "/>
<path style=" stroke:none;fill-rule:nonzero;fill:rgb(88.627452%,14.509805%,19.215687%);fill-opacity:1;" d="M 244.699219 343.136719 C 241.113281 341.496094 237.558594 339.796875 234.105469 338.03125 C 236.125 337.246094 238.15625 336.4375 240.1875 335.609375 C 243.726562 337.28125 247.300781 338.921875 250.914062 340.53125 C 248.847656 341.402344 246.777344 342.273438 244.699219 343.136719 "/>
<path style=" stroke:none;fill-rule:nonzero;fill:rgb(88.627452%,14.509805%,19.215687%);fill-opacity:1;" d="M 242.03125 344.226562 C 240.617188 347.953125 239.113281 351.644531 237.519531 355.296875 C 239.714844 354.484375 241.886719 353.648438 244.03125 352.789062 C 245.519531 349.066406 246.910156 345.367188 248.257812 341.640625 C 246.1875 342.523438 244.113281 343.382812 242.03125 344.226562 "/>
<path style=" stroke:none;fill-rule:nonzero;fill:rgb(88.627452%,14.509805%,19.215687%);fill-opacity:1;" d="M 260.972656 336.210938 L 250.140625 331.410156 L 256.359375 328.742188 C 259.988281 330.339844 263.617188 331.949219 267.199219 333.613281 C 265.121094 334.472656 263.042969 335.339844 260.972656 336.210938 "/>
<path style=" stroke:none;fill-rule:nonzero;fill:rgb(88.627452%,14.509805%,19.215687%);fill-opacity:1;" d="M 258.324219 337.34375 L 254.316406 348.507812 L 260.527344 345.84375 C 261.847656 342.132812 263.164062 338.429688 264.535156 334.726562 Z M 258.324219 337.34375 "/>
<path style=" stroke:none;fill-rule:nonzero;fill:rgb(88.627452%,14.509805%,19.215687%);fill-opacity:1;" d="M 277.421875 329.703125 C 273.917969 327.875 270.324219 326.148438 266.679688 324.464844 C 268.832031 323.613281 271.011719 322.785156 273.214844 321.984375 C 276.828125 323.742188 280.402344 325.613281 283.816406 327.550781 C 281.671875 328.230469 279.539062 328.949219 277.421875 329.703125 "/>
<path style=" stroke:none;fill-rule:nonzero;fill:rgb(88.627452%,14.509805%,19.215687%);fill-opacity:1;" d="M 274.710938 330.683594 C 273.21875 334.316406 271.804688 337.976562 270.46875 341.664062 C 272.5 340.839844 274.527344 340.03125 276.546875 339.277344 C 277.945312 335.640625 279.429688 332.046875 281.070312 328.449219 L 277.882812 329.542969 Z M 274.710938 330.683594 "/>
<path style=" stroke:none;fill-rule:nonzero;fill:rgb(88.627452%,14.509805%,19.215687%);fill-opacity:1;" d="M 294.398438 324.753906 C 291.148438 322.484375 287.726562 320.394531 284.175781 318.390625 L 287.636719 317.433594 L 291.15625 316.566406 C 292.898438 317.6875 294.582031 318.765625 296.234375 319.949219 C 297.0625 320.527344 297.871094 321.113281 298.664062 321.699219 C 299.464844 322.304688 300.253906 322.914062 301.03125 323.527344 C 299.917969 323.695312 298.796875 323.863281 297.699219 324.082031 L 296.042969 324.394531 Z M 294.398438 324.753906 "/>
<path style=" stroke:none;fill-rule:nonzero;fill:rgb(88.627452%,14.509805%,19.215687%);fill-opacity:1;" d="M 291.585938 325.402344 C 289.699219 328.804688 287.96875 332.292969 286.394531 335.851562 L 289.425781 334.945312 C 290.4375 334.660156 291.449219 334.386719 292.464844 334.128906 C 294.160156 330.714844 296.042969 327.316406 298.179688 324 C 295.96875 324.394531 293.769531 324.863281 291.585938 325.402344 "/>
<path style=" stroke:none;fill-rule:nonzero;fill:rgb(88.627452%,14.509805%,19.215687%);fill-opacity:1;" d="M 311.925781 322.554688 C 310.542969 321.152344 309.09375 319.777344 307.578125 318.425781 C 306.066406 317.113281 304.488281 315.777344 302.855469 314.539062 C 304.085938 314.363281 305.3125 314.269531 306.539062 314.160156 C 307.761719 314.039062 309.003906 313.996094 310.238281 313.929688 C 313.253906 316.628906 316.070312 319.546875 318.664062 322.660156 C 316.421875 322.523438 314.171875 322.503906 311.925781 322.554688 "/>
<path style=" stroke:none;fill-rule:nonzero;fill:rgb(88.627452%,14.509805%,19.215687%);fill-opacity:1;" d="M 309.035156 322.679688 C 307.800781 324.191406 306.613281 325.742188 305.476562 327.324219 C 304.371094 328.886719 303.3125 330.488281 302.308594 332.117188 C 304.332031 331.800781 306.355469 331.589844 308.371094 331.429688 C 310.609375 328.28125 313.089844 325.316406 315.785156 322.550781 C 313.53125 322.5 311.28125 322.542969 309.035156 322.679688 "/>
<path style=" stroke:none;fill-rule:nonzero;fill:rgb(88.627452%,14.509805%,19.215687%);fill-opacity:1;" d="M 329.519531 323.980469 C 327.363281 320.550781 324.957031 317.285156 322.320312 314.207031 C 323.554688 314.347656 324.792969 314.457031 326.023438 314.625 C 327.253906 314.808594 328.484375 314.972656 329.707031 315.175781 C 332.128906 318.570312 334.261719 321.988281 336.082031 325.507812 C 335 325.199219 333.910156 324.921875 332.8125 324.679688 L 331.175781 324.300781 Z M 329.519531 323.980469 "/>
<path style=" stroke:none;fill-rule:nonzero;fill:rgb(88.627452%,14.509805%,19.215687%);fill-opacity:1;" d="M 326.679688 323.492188 C 325.910156 324.097656 325.152344 324.71875 324.402344 325.347656 C 323.660156 325.996094 322.9375 326.640625 322.230469 327.289062 C 320.832031 328.574219 319.484375 329.917969 318.195312 331.3125 C 320.199219 331.421875 322.195312 331.621094 324.183594 331.902344 C 326.300781 329.949219 328.535156 328.132812 330.875 326.457031 C 331.667969 325.890625 332.476562 325.335938 333.296875 324.796875 C 332.199219 324.527344 331.109375 324.261719 330 324.078125 C 328.894531 323.863281 327.792969 323.632812 326.679688 323.492188 "/>
<path style=" stroke:none;fill-rule:nonzero;fill:rgb(88.627452%,14.509805%,19.215687%);fill-opacity:1;" d="M 346.449219 329.007812 C 345.007812 325.238281 343.324219 321.5625 341.414062 318.007812 C 342.582031 318.390625 343.757812 318.75 344.917969 319.144531 L 348.371094 320.417969 C 349.199219 322.3125 349.972656 324.195312 350.691406 326.0625 C 351.386719 327.96875 352.03125 329.855469 352.621094 331.71875 L 349.5625 330.324219 C 348.539062 329.847656 347.488281 329.453125 346.449219 329.007812 "/>
<path style=" stroke:none;fill-rule:nonzero;fill:rgb(88.627452%,14.509805%,19.215687%);fill-opacity:1;" d="M 343.765625 327.964844 C 342.882812 328.421875 342.015625 328.871094 341.164062 329.320312 C 340.300781 329.800781 339.453125 330.300781 338.621094 330.78125 C 337.792969 331.273438 336.980469 331.773438 336.175781 332.28125 C 335.367188 332.816406 334.578125 333.335938 333.800781 333.882812 C 335.761719 334.394531 337.699219 335.027344 339.625 335.707031 C 342.890625 333.789062 346.375 332.050781 350.003906 330.519531 C 348.984375 330.03125 347.941406 329.625 346.902344 329.191406 L 345.339844 328.546875 Z M 343.765625 327.964844 "/>
<path style=" stroke:none;fill-rule:nonzero;fill:rgb(88.627452%,14.509805%,19.215687%);fill-opacity:1;" d="M 210.742188 347.289062 C 209.449219 348.296875 208.199219 349.332031 206.988281 350.394531 C 208.28125 351.53125 209.613281 352.59375 211.003906 353.6875 L 214.3125 353.078125 C 215.421875 352.824219 216.515625 352.605469 217.609375 352.351562 C 215.210938 350.730469 212.910156 349.058594 210.742188 347.289062 "/>
</g>
</svg>
